<mxfile host="app.diagrams.net" modified="2024-01-19T08:34:22.017Z" agent="Mozilla/5.0 (Windows NT 10.0; Win64; x64) AppleWebKit/537.36 (KHTML, like Gecko) Chrome/120.0.0.0 Safari/537.36" version="22.1.16" etag="ROzGCGA0Z7EzrLz6Td0n" type="github">
  <diagram name="Page-1" id="C8CvP4awC-dk5zznVuAl">
    <mxGraphModel>
      <root>
        <mxCell id="0" />
        <mxCell id="1" parent="0" />
      </root>
    </mxGraphModel>
  </diagram>
</mxfile>
